<?xml version="1.0" encoding="UTF-8" standalone="no"?>
<!-- Created with Inkscape (http://www.inkscape.org/) -->

<svg
   width="800"
   height="200"
   viewBox="0 0 211.66666 52.916668"
   version="1.1"
   id="svg5"
   inkscape:version="1.1 (c68e22c387, 2021-05-23)"
   sodipodi:docname="huelga.svg"
   xmlns:inkscape="http://www.inkscape.org/namespaces/inkscape"
   xmlns:sodipodi="http://sodipodi.sourceforge.net/DTD/sodipodi-0.dtd"
   xmlns:xlink="http://www.w3.org/1999/xlink"
   xmlns="http://www.w3.org/2000/svg"
   xmlns:svg="http://www.w3.org/2000/svg">
  <sodipodi:namedview
     id="namedview7"
     pagecolor="#505050"
     bordercolor="#ffffff"
     borderopacity="1"
     inkscape:pageshadow="0"
     inkscape:pageopacity="0"
     inkscape:pagecheckerboard="1"
     inkscape:document-units="px"
     showgrid="false"
     units="px"
     width="600px"
     inkscape:snap-bbox="false"
     inkscape:object-paths="true"
     inkscape:snap-nodes="true"
     inkscape:object-nodes="true"
     inkscape:bbox-paths="true"
     inkscape:snap-intersection-paths="true"
     inkscape:snap-smooth-nodes="true"
     inkscape:snap-midpoints="true"
     inkscape:zoom="0.5"
     inkscape:cx="309"
     inkscape:cy="115"
     inkscape:window-width="1366"
     inkscape:window-height="745"
     inkscape:window-x="-8"
     inkscape:window-y="-8"
     inkscape:window-maximized="1"
     inkscape:current-layer="layer2" />
  <defs
     id="defs2">
    <rect
       x="3.1662269"
       y="2.1108179"
       width="792.61214"
       height="195.25066"
       id="rect10446" />
    <rect
       x="4.2216359"
       y="17.941953"
       width="791.55673"
       height="173.08707"
       id="rect2828" />
  </defs>
  <g
     inkscape:label="Capa 1"
     inkscape:groupmode="layer"
     id="layer1"
     style="display:none">
    <text
       xml:space="preserve"
       transform="scale(0.26458333)"
       id="text2826"
       style="font-style:normal;font-weight:normal;font-size:40px;line-height:1.25;font-family:sans-serif;white-space:pre;shape-inside:url(#rect2828);fill:#000000;fill-opacity:1;stroke:none" />
    <image
       width="178.15993"
       height="98.185913"
       preserveAspectRatio="none"
       xlink:href="huelga.png"
       id="image21850"
       x="16.106792"
       y="-20.967461"
       style="fill:none;stroke:#ffffff;stroke-opacity:1" />
  </g>
  <g
     inkscape:groupmode="layer"
     id="layer2"
     inkscape:label="Capa 2"
     style="display:inline">
    <path
       id="rect22250-5"
       style="font-variation-settings:normal;display:inline;vector-effect:none;fill:#ffffff;fill-opacity:1;fill-rule:evenodd;stroke-width:3.77953;stroke-linecap:butt;stroke-linejoin:miter;stroke-miterlimit:4;stroke-dasharray:none;stroke-dashoffset:0;stroke-opacity:1;-inkscape-stroke:none;stop-color:#000000;stroke:none"
       d="M 112.7832,19.072266 V 187.39648 h 48.10742 v -72.00781 h 14.87891 v 72.00781 h 48.10742 V 19.072266 H 175.76953 V 76.925781 H 160.89062 V 19.072266 Z"
       transform="scale(0.26458333)" />
    <path
       id="rect22250-5-4-4"
       style="font-variation-settings:normal;display:inline;vector-effect:none;fill:#ffffff;fill-opacity:1;fill-rule:evenodd;stroke-width:3.24122;stroke-linecap:butt;stroke-linejoin:miter;stroke-miterlimit:4;stroke-dasharray:none;stroke-dashoffset:0;stroke-opacity:1;-inkscape-stroke:none;stop-color:#000000"
       d="m 399.93555,19.101562 v 132.419918 35.875 0.0312 h 35.38086 v -0.0312 h 28.73828 v -35.875 H 435.31641 V 19.101562 Z"
       transform="scale(0.26458333)" />
    <path
       id="rect22250-5-4-2"
       style="display:inline;vector-effect:none;fill:#ffffff;fill-rule:evenodd;stroke-width:3.45089;stop-color:#000000;fill-opacity:1"
       d="M 230.45312,19.072266 V 153.45312 c 0.0402,0.43118 0.90475,15.76612 10.99415,24.16211 12.52354,10.4216 29.11132,9.78125 29.11132,9.78125 h 12 c 0,0 16.58778,0.63846 29.11133,-9.78125 10.04896,-8.36081 10.94729,-23.58572 10.99414,-24.13476 V 19.101562 H 282.55859 V 148.19727 h -12 V 19.072266 Z m 92.21094,134.408204 v 1.06445 c 0,-0.94432 0.008,-1.16125 0,-1.06445 z m -92.21094,-0.0273 c -0.007,-0.074 0,0.16301 0,1.08594 z"
       transform="scale(0.26458333)" />
    <path
       id="rect22250-5-4-2-5"
       style="display:inline;vector-effect:none;fill:#ffffff;fill-opacity:1;fill-rule:evenodd;stroke-width:2.76941;stop-color:#000000"
       d="m 510.01172,19.072266 c -3.34612,0.01291 -17.41492,0.431748 -28.37305,6.304687 -10.04634,5.384296 -10.94686,15.186444 -10.99414,15.544922 v 38.060547 48.501958 38.06054 c 0.0473,0.35848 0.9478,10.16258 10.99414,15.54688 12.52358,6.71193 29.11133,6.29882 29.11133,6.29882 h 12.07227 c 0,0 16.58775,0.41311 29.11132,-6.29882 10.08059,-5.40265 10.95252,-15.26431 10.99414,-15.5586 V 79.232422 h -40.10546 -7.16407 v 39.384768 h 7.16407 v 29.57422 H 510.75 V 127.48438 78.982422 58.275391 h 12.07227 v 15.646484 h 40.10546 V 40.933594 c -0.0416,-0.294291 -0.91355,-10.153997 -10.99414,-15.556641 -12.52357,-6.711931 -29.11132,-6.300781 -29.11132,-6.300781 H 510.75 c 0,0 -0.26026,-0.0058 -0.73828,-0.0039 z m 52.91601,21.861328 c 0.007,0.0508 0,-0.09789 0,-0.695313 z m 0,124.599606 v 0.69727 c 0,-0.59742 0.007,-0.74806 0,-0.69727 z m -92.2832,0.0117 c -0.008,-0.0633 0,0.0764 0,0.68555 z m 0,-124.623045 v -0.683594 c 0,0.609176 -0.008,0.746902 0,0.683594 z"
       transform="scale(0.26458333)"
       sodipodi:nodetypes="ssccccsccscccccccccccccccsccsscccccccccccc" />
    <path
       id="rect25360"
       style="font-variation-settings:normal;display:inline;opacity:1;vector-effect:none;fill:#ffffff;fill-opacity:1;fill-rule:evenodd;stroke-width:3.77642;stroke-linecap:butt;stroke-linejoin:miter;stroke-miterlimit:4;stroke-dasharray:none;stroke-dashoffset:0;stroke-opacity:1;-inkscape-stroke:none;stop-color:#000000;stop-opacity:1"
       d="m 329.24023,19.101562 v 35.876954 26.255859 35.875005 34.4121 35.875 h 64.11915 v -35.875 h -32.0586 v -34.4121 h 32.0586 V 81.234375 h -32.0586 V 54.978516 h 32.0586 V 19.101562 h -32.0586 z"
       transform="scale(0.26458333)" />
    <path
       style="font-variation-settings:normal;display:inline;opacity:1;vector-effect:none;fill:#ffffff;fill-opacity:1;stroke:none;stroke-width:0.264583px;stroke-linecap:butt;stroke-linejoin:miter;stroke-miterlimit:4;stroke-dasharray:none;stroke-dashoffset:0;stroke-opacity:1;-inkscape-stroke:none;stop-color:#000000;stop-opacity:1"
       d="m 148.98415,49.58195 9.23658,-44.5359991 h 6.23877 6.23878 l 9.68631,44.5359991 -12.0621,10e-7 -0.7207,-5.440386 h -5.79975 l -0.51025,5.440386 -12.33413,-10e-7"
       id="path26962"
       sodipodi:nodetypes="cccccccccc" />
    <circle
       style="font-variation-settings:normal;display:inline;opacity:1;fill:none;fill-opacity:1;fill-rule:evenodd;stroke:#ffffff;stroke-width:0.3302;stroke-linecap:butt;stroke-linejoin:miter;stroke-miterlimit:4;stroke-dasharray:none;stroke-dashoffset:0;stroke-opacity:1;stop-color:#000000;stop-opacity:1"
       id="path33745"
       cx="179.34785"
       cy="10.175074"
       r="4.5204549" />
    <text
       xml:space="preserve"
       style="display:inline;font-style:normal;font-weight:normal;font-size:7.42107px;line-height:1.25;font-family:sans-serif;fill:#ffffff;fill-opacity:1;stroke:none;stroke-width:0.185527"
       x="176.90244"
       y="12.470277"
       id="text36601"><tspan
         sodipodi:role="line"
         id="tspan36599"
         style="font-style:normal;font-variant:normal;font-weight:normal;font-stretch:normal;font-size:7.42107px;font-family:'Arial Rounded MT Bold';-inkscape-font-specification:'Arial Rounded MT Bold, Normal';font-variant-ligatures:normal;font-variant-caps:normal;font-variant-numeric:normal;font-variant-east-asian:normal;fill:#ffffff;fill-opacity:1;stroke-width:0.185527"
         x="176.90244"
         y="12.470277">R</tspan></text>
  </g>
  <g
     inkscape:groupmode="layer"
     id="layer3"
     inkscape:label="Capa 3"
     style="display:inline">
    <path
       id="path30771"
       style="font-variation-settings:normal;opacity:1;vector-effect:none;fill:#800000;fill-opacity:1;stroke:#800000;stroke-width:0.999999px;stroke-linecap:butt;stroke-linejoin:miter;stroke-miterlimit:4;stroke-dasharray:none;stroke-dashoffset:0;stroke-opacity:1;-inkscape-stroke:none;stop-color:#000000;stop-opacity:1"
       d="m 605.94922,73.636719 c -2.72557,0.05341 -5.82626,1.01097 -9.3125,3.330078 -6.19956,4.124054 -7.1432,14.676976 -1.76172,21.685547 10.86539,14.150506 26.71094,32.162106 26.71094,32.162106 l -0.002,-43.681638 c 0,0 -4.94214,-13.705639 -15.63476,-13.496093 z m 15.63672,57.177731 c 0,0 15.84555,-18.0116 26.71094,-32.162106 5.38148,-7.008571 4.43784,-17.561493 -1.76172,-21.685547 -17.16303,-11.417148 -24.94727,10.166015 -24.94727,10.166015 z"
       transform="scale(0.26458333)" />
  </g>
</svg>
